<svg width="44" height="43" viewBox="0 0 44 43" fill="none" xmlns="http://www.w3.org/2000/svg">
<path fill-rule="evenodd" clip-rule="evenodd" d="M17.323 4.85077C16.3215 5.60798 15.2451 6.25758 14.0936 6.79954C13.9604 6.8724 13.9604 6.92808 14.0936 6.96658C14.2685 6.87645 14.4542 6.83933 14.6504 6.85522C14.3131 6.98795 13.9976 7.17355 13.7038 7.41201C13.6667 7.33777 13.6296 7.26354 13.5925 7.1893C13.4737 7.26619 13.3437 7.32187 13.2027 7.35633C13.5231 7.48181 13.8572 7.55606 14.2049 7.57905C13.3812 7.55176 12.6759 7.81159 12.0891 8.35856C11.7176 8.35834 11.4577 8.52538 11.3096 8.85968C11.1032 8.7844 11.0661 8.67304 11.1983 8.5256C11.8748 8.11052 12.5058 7.72077 13.0914 7.35633C12.9523 7.15321 12.8224 7.17177 12.7016 7.41201C12.6121 7.26675 12.4821 7.1925 12.3118 7.1893C11.9867 7.31019 11.6526 7.38443 11.3096 7.41201C12.0858 7.15409 12.8282 6.80145 13.5368 6.35411C14.1679 5.77952 14.7618 5.16705 15.3185 4.51669C15.63 4.26112 15.927 3.98273 16.2094 3.6815C17.1819 3.15915 18.1098 2.5838 18.9934 1.95544C19.1375 1.86748 19.2674 1.75612 19.3831 1.62137C19.4595 1.19582 19.5709 0.787515 19.7172 0.396423C19.8892 0.902726 19.9264 1.4224 19.8286 1.95544C19.2512 3.14515 18.416 4.11027 17.323 4.85077Z" fill="#E76530"/>
<path fill-rule="evenodd" clip-rule="evenodd" d="M25.8975 5.85299C25.4422 6.45708 24.8854 6.93964 24.2272 7.30066C23.5484 7.58422 22.8803 7.89973 22.2227 8.2472C22.0193 8.34731 21.8708 8.49587 21.7773 8.69264C22.2374 9.11613 22.6644 9.58005 23.0579 10.0846C23.3033 10.3886 23.4518 10.7227 23.5033 11.0868C22.7637 10.5591 21.9656 10.1323 21.1091 9.80622C20.462 9.61825 19.9423 9.78529 19.5501 10.3073C20.4337 11.1178 21.1019 12.0829 21.5546 13.2027C20.9256 12.4809 20.1833 11.9056 19.3274 11.4766C18.7932 11.3816 18.255 11.3259 17.7127 11.3096C17.3756 11.2964 17.06 11.3521 16.7661 11.4766C19.163 12.8287 20.1466 14.8517 19.7171 17.5456C19.4995 17.9668 19.2211 18.338 18.8819 18.6592C18.919 18.6963 18.9562 18.7335 18.9933 18.7706C19.7868 18.4776 20.4365 17.9951 20.9421 17.3229C21.4071 16.5031 21.7969 15.6494 22.1113 14.7617C22.9997 12.9504 24.1874 11.3543 25.6748 9.97326C26.776 9.0952 27.9639 8.35277 29.2383 7.74609C29.5861 7.51848 29.9572 7.33289 30.3519 7.1893C30.7973 7.0037 31.2428 6.81811 31.6882 6.6325C33.5039 5.8542 35.397 5.37165 37.3675 5.18484C38.4075 5.1663 39.4469 5.18487 40.4855 5.24052C39.9823 5.26004 39.4997 5.31572 39.0379 5.40756C37.2471 5.75543 35.7438 6.60917 34.5278 7.96881C34.2125 8.4325 33.9711 8.93362 33.804 9.47215C34.1414 10.1258 34.5868 10.7011 35.1403 11.1982C34.6038 11.3342 34.0841 11.4826 33.5813 11.6436C32.549 11.6861 31.5468 11.8345 30.5746 12.0891C29.9436 12.1882 29.3497 12.3738 28.7929 12.6459C27.3296 13.1249 26.0862 13.9416 25.0624 15.0958C24.0786 16.5431 23.1507 18.0278 22.2784 19.5501C21.0082 21.1798 19.3564 21.8109 17.3229 21.4432C16.851 21.1694 16.3684 20.891 15.8753 20.608C15.1328 20.0141 14.3905 19.4201 13.6481 18.8263C10.6229 17.4715 8.34008 18.2696 6.79954 21.2205C6.12737 22.6345 5.90465 24.1193 6.13139 25.6748C6.48281 27.9 7.29944 29.9415 8.58128 31.7995C9.08239 32.4491 9.65778 33.0245 10.3073 33.5256C10.6851 33.8256 11.0934 34.0668 11.5323 34.2494C12.6321 34.9473 13.8198 35.4669 15.0958 35.8084C16.1085 36.1358 17.1479 36.3958 18.2138 36.588C20.3361 37.0067 22.4891 37.118 24.6726 36.922C26.716 36.7973 28.6834 36.3519 30.5746 35.5857C32.9449 34.7631 35.0421 33.5011 36.8664 31.7995C37.0148 31.5768 37.1634 31.3541 37.3118 31.1314C37.4184 29.9141 37.2142 28.7635 36.6993 27.6793C36.088 26.3998 35.1971 25.3605 34.0267 24.5612C32.4228 23.191 30.5668 22.3929 28.4588 22.167C29.7901 22.9181 30.3284 24.0503 30.0735 25.5635C29.7027 26.6748 29.1459 27.677 28.4031 28.5701C27.359 29.5583 26.3754 30.5976 25.4521 31.6882C25.5201 31.3295 25.6501 30.9954 25.8419 30.686C26.1517 30.4331 26.393 30.1362 26.5657 29.7951C27.8768 28.6941 28.4893 27.2836 28.4031 25.5635C27.9294 24.1474 26.9458 23.535 25.4521 23.726C24.7717 23.9734 24.1406 24.3074 23.559 24.7283C22.7762 25.5484 21.9595 26.3279 21.1091 27.0668C20.0324 27.8372 18.8446 28.1156 17.5456 27.902C15.9396 27.2697 14.4734 27.4924 13.147 28.5701C11.972 29.9544 11.9164 31.3649 12.9799 32.8018C13.2116 33.2011 13.5085 33.5538 13.8708 33.8597C13.4965 33.7287 13.1254 33.5617 12.7572 33.3586C11.6304 32.5839 10.758 31.5817 10.1403 30.3519C10.0315 30.1024 9.97582 29.8426 9.97326 29.5724C9.95444 29.3038 10.0286 29.0625 10.196 28.8485C10.0718 28.711 10.0718 28.5811 10.196 28.4588C10.1217 28.3845 10.0475 28.3103 9.97326 28.2361C10.4145 27.9622 10.8414 27.6652 11.2539 27.3452C11.291 27.3823 11.3282 27.4195 11.3652 27.4566C11.4559 27.2581 11.5858 27.0911 11.755 26.9554C11.6344 26.7265 11.4488 26.578 11.1982 26.51C11.3583 26.4856 11.5068 26.4299 11.6436 26.343C11.8054 26.0865 11.9168 25.8452 11.9777 25.6191C11.7797 25.3814 11.7054 25.103 11.755 24.7839C13.0385 23.791 14.4862 23.1043 16.098 22.7238C16.8553 22.648 17.5977 22.518 18.3252 22.3341C20.2072 22.0674 21.6735 21.1393 22.7238 19.5501C23.4291 18.3622 24.1344 17.1745 24.8396 15.9866C26.3305 14.3973 28.1679 13.6921 30.3519 13.8708C30.6959 14.0139 31.067 14.0881 31.4655 14.0935C32.4577 14.4127 33.4228 14.821 34.3608 15.3185C34.4737 15.4492 34.6222 15.5234 34.8062 15.5412C35.1211 15.7606 35.4552 15.9647 35.8085 16.1537C34.8979 16.1727 34.007 16.2284 33.1358 16.3207C32.4135 16.3883 31.7453 16.611 31.1314 16.9889C32.3591 17.6599 33.2871 18.625 33.9154 19.8842C33.8968 19.9213 33.8783 19.9584 33.8597 19.9955C33.3462 19.4329 32.7337 19.0247 32.0223 18.7706C30.9995 18.5461 29.9602 18.4904 28.9042 18.6035C28.3876 18.7876 27.9051 19.0288 27.4566 19.3274C27.3961 19.3341 27.359 19.3711 27.3452 19.4387C27.595 19.5472 27.8548 19.5844 28.1247 19.5501C29.2518 19.6041 30.3282 19.864 31.3541 20.3296C33.0907 21.4352 34.5384 22.8456 35.6971 24.5612C35.8827 24.9324 36.0683 25.3037 36.2539 25.6748C37.0595 27.3252 37.542 29.0698 37.7015 30.9087C38.001 30.5724 38.298 30.2383 38.5924 29.9064C40.851 27.7655 42.2987 25.167 42.9354 22.1113C43.0394 21.9924 43.0766 21.844 43.0468 21.6659C43.1567 22.201 43.1939 22.7578 43.1581 23.3363C43.1581 23.8931 43.1581 24.4499 43.1581 25.0067C42.975 25.4969 42.8637 26.0166 42.824 26.5657C42.72 26.6846 42.6828 26.8331 42.7127 27.0111C42.3771 27.8691 42.0059 28.7229 41.5991 29.5724C41.154 30.2396 40.7086 30.9078 40.2628 31.5768C38.1216 34.37 35.7831 37.024 33.2472 39.539C32.876 39.836 32.5048 40.1328 32.1336 40.4298C31.8127 40.6089 31.4786 40.7573 31.1314 40.8753C30.8847 41.0288 30.6992 41.2331 30.5746 41.4877C29.8991 41.6845 29.2125 41.8701 28.5145 42.0445C28.3998 42.0819 28.3441 42.1562 28.3474 42.2672C27.3293 42.4414 26.327 42.6269 25.3407 42.824C24.0415 42.824 22.7424 42.824 21.4432 42.824C20.9978 42.824 20.5523 42.824 20.1069 42.824C19.2485 42.7898 18.3948 42.7156 17.5456 42.6013C16.6444 42.421 15.7536 42.1983 14.873 41.9332C13.863 41.6096 12.898 41.2012 11.9777 40.7082C11.971 40.2003 11.7112 39.9219 11.1982 39.873C10.9559 39.4471 10.6775 39.0573 10.363 38.7038C10.2504 38.797 10.1205 38.8341 9.97326 38.8151C9.97326 38.5924 9.97326 38.3697 9.97326 38.147C9.81402 38.1382 9.66547 38.1753 9.52783 38.2583C9.45355 38.0727 9.37939 37.8872 9.30511 37.7015C9.17293 37.8568 9.09865 37.8382 9.08239 37.6459C9.30467 37.3871 9.24899 37.1458 8.91536 36.922C8.75767 37.0415 8.60912 37.0415 8.46992 36.922C8.4148 36.7023 8.3962 36.4796 8.41424 36.2539C8.22504 36.2361 8.03942 36.2545 7.85745 36.3096C7.95101 36.4951 7.89533 36.5137 7.69041 36.3652C7.65573 36.2269 7.71141 36.1156 7.85745 36.0312C7.79729 35.8922 7.72305 35.7622 7.63473 35.6414C7.74609 35.5301 7.85745 35.4187 7.96881 35.3073C7.45367 35.2431 7.34232 35.0204 7.63473 34.6392C7.15786 34.403 7.12073 34.1432 7.52337 33.8597C7.38432 33.6566 7.25441 33.6752 7.13362 33.9154C7.02445 33.7504 6.89453 33.6019 6.74386 33.4699C6.80774 33.2963 6.88197 33.1293 6.96658 32.9688C6.64047 32.8255 6.38063 32.6028 6.18707 32.3007C6.26131 32.2264 6.33554 32.1522 6.40979 32.0779C6.22515 31.9972 6.16948 31.8672 6.24275 31.6882C6.28595 31.7915 6.36019 31.8658 6.46547 31.9109C6.63139 31.8199 6.79843 31.7272 6.96658 31.6325C6.65637 31.1531 6.43365 30.6706 6.29843 30.1848C6.37267 30.0735 6.4469 29.9621 6.52115 29.8508C6.29806 29.6181 6.16814 29.3397 6.13139 29.0156C6.05149 29.1215 5.95868 29.14 5.85299 29.0713C5.94519 28.9694 6.05655 28.8952 6.18707 28.8485C6.0386 28.7372 6.0386 28.6258 6.18707 28.5145C6.09488 28.4126 5.98352 28.3384 5.85299 28.2917C5.90393 28.2456 5.94105 28.19 5.96435 28.1247C5.55092 27.9201 5.55092 27.7531 5.96435 27.6236C5.89368 27.1401 5.74521 26.6576 5.51892 26.1759C5.54698 25.8043 5.5841 25.396 5.63028 24.951C5.34333 24.5718 5.34333 24.2007 5.63028 23.8374C5.56048 23.5765 5.44912 23.3352 5.2962 23.1136C5.37091 22.8901 5.48227 22.686 5.63028 22.5011C5.47611 22.147 5.55036 21.85 5.85299 21.6102C5.77875 21.5731 5.70452 21.536 5.63028 21.4989C5.72743 21.0106 5.95014 20.5836 6.29843 20.2182C6.04657 19.9946 6.10225 19.9576 6.46547 20.1069C6.63191 19.9276 6.65047 19.7421 6.52115 19.5501C6.72203 19.4147 6.90763 19.3033 7.07794 19.216C6.90895 19.0284 6.72336 18.8613 6.52115 18.7149C6.87175 18.5951 7.20582 18.4466 7.52337 18.2695C7.41201 18.2324 7.30066 18.1952 7.1893 18.1581C7.21042 17.9546 7.24755 17.7503 7.30066 17.5456C7.42602 17.3282 7.61162 17.1611 7.85745 17.0445C7.70897 16.9703 7.70897 16.8961 7.85745 16.8218C7.79895 16.7448 7.72472 16.6891 7.63473 16.6548C7.48575 16.8593 7.31871 17.0449 7.13362 17.2116C7.10549 17.0963 7.01268 16.985 6.85522 16.8775C7.13265 16.7616 7.13265 16.6688 6.85522 16.5991C7.0037 16.562 7.15218 16.5248 7.30066 16.4877C7.21067 16.4534 7.13644 16.3978 7.07794 16.3207C7.2973 16.158 7.48289 15.9725 7.63473 15.7639C7.97052 15.5218 8.34175 15.3362 8.74832 15.2071C8.93529 15.1635 9.12092 15.1078 9.30511 15.0401C8.34075 14.9844 7.37561 14.9659 6.40979 14.9844C5.61239 14.9011 4.90713 14.6041 4.29397 14.0935C3.96662 13.1789 4.00374 12.2881 4.40533 11.4209C4.52089 11.7471 4.6508 12.0812 4.79509 12.4231C5.03355 12.7562 5.34907 12.8862 5.74164 12.8129C5.29635 12.7385 4.98083 12.4972 4.79509 12.0891C4.68255 11.4837 4.58974 10.8897 4.51669 10.3073C3.41347 9.5756 2.41125 8.72181 1.51001 7.74609C1.54806 7.65275 1.6223 7.61562 1.73273 7.63473C2.54005 7.83647 3.35669 8.00351 4.18262 8.13584C6.20823 8.73919 7.39605 8.01538 7.74609 5.96435C7.85245 5.58399 7.98236 5.24991 8.13585 4.96213C8.15923 5.13563 8.21491 5.28412 8.30288 5.40756C8.34386 6.27399 8.2697 7.12773 8.08017 7.96881C8.9197 8.02226 9.60634 7.72531 10.1403 7.07794C10.6196 6.13913 10.8423 5.1369 10.8085 4.07126C11.4946 5.22425 11.476 6.35639 10.7528 7.46769C10.9417 7.51051 11.1273 7.49195 11.3096 7.41201C11.6525 7.38443 11.9866 7.31019 12.3118 7.1893C12.4821 7.1925 12.612 7.26675 12.7015 7.41201C12.8224 7.17177 12.9522 7.15321 13.0913 7.35633C12.5058 7.72077 11.8747 8.11052 11.1982 8.5256C11.066 8.67304 11.1031 8.7844 11.3096 8.85968C11.4577 8.52538 11.7176 8.35834 12.0891 8.35856C12.6758 7.81159 13.3812 7.55176 14.2049 7.57905C13.8571 7.55606 13.523 7.48181 13.2027 7.35633C13.3436 7.32187 13.4736 7.26619 13.5924 7.1893C13.6295 7.26354 13.6667 7.33777 13.7038 7.41201C13.9975 7.17355 14.313 6.98795 14.6503 6.85522C16.2266 6.45866 17.8228 6.3473 19.4387 6.52115C20.0995 6.68406 20.7863 6.75831 21.4989 6.74386C21.9257 6.7253 22.3527 6.70675 22.7795 6.68818C24.4061 6.26704 25.5197 5.28337 26.1203 3.73718C26.2846 3.24056 26.4145 2.72089 26.51 2.17816C26.5657 2.6236 26.6214 3.06903 26.677 3.51446C26.5724 4.34815 26.3126 5.12766 25.8975 5.85299Z" fill="#E76530"/>
<path fill-rule="evenodd" clip-rule="evenodd" d="M1.73271 7.63473C1.62229 7.61563 1.54805 7.65275 1.50999 7.74609C1.32439 7.59762 1.1388 7.44913 0.953201 7.30066C0.817823 7.08015 0.725016 6.85743 0.674805 6.63251C0.9427 7.06775 1.29534 7.40183 1.73271 7.63473Z" fill="#E76530"/>
<path fill-rule="evenodd" clip-rule="evenodd" d="M9.41641 10.0846C9.53356 10.068 9.64492 10.0865 9.75049 10.1403C9.27365 10.4453 9.19949 10.8166 9.52777 11.2539C10.0376 11.3612 10.316 11.157 10.363 10.6414C10.4831 10.4305 10.6317 10.3934 10.8084 10.5301C10.89 11.0827 10.6488 11.4354 10.0846 11.588C9.43434 11.7456 9.02599 11.5044 8.85962 10.8641C8.9643 10.5424 9.14982 10.2826 9.41641 10.0846Z" fill="white"/>
<path fill-rule="evenodd" clip-rule="evenodd" d="M4.51663 10.3073C4.58968 10.8897 4.68249 11.4837 4.79503 12.089C4.98077 12.4972 5.29629 12.7385 5.74158 12.8129C5.34902 12.8862 5.03349 12.7562 4.79503 12.4231C4.65074 12.0811 4.52083 11.7471 4.40527 11.4209C4.50702 11.0614 4.54415 10.6903 4.51663 10.3073Z" fill="white"/>
<path fill-rule="evenodd" clip-rule="evenodd" d="M7.63475 15.7639C7.48291 15.9725 7.29732 16.158 7.07796 16.3207C7.13645 16.3978 7.21068 16.4534 7.30067 16.4877C7.1522 16.5248 7.00371 16.562 6.85524 16.5991C7.13267 16.6688 7.13267 16.7616 6.85524 16.8775C7.0127 16.985 7.10551 17.0963 7.13363 17.2116C7.31872 17.0449 7.48576 16.8594 7.63475 16.6548C7.72474 16.6891 7.79897 16.7448 7.85747 16.8218C7.70899 16.8961 7.70899 16.9703 7.85747 17.0445C7.61164 17.1611 7.42604 17.3282 7.30067 17.5457C7.01676 17.5389 6.84973 17.3904 6.79956 17.1002C6.6096 17.1902 6.51681 17.3386 6.52116 17.5457C7.21497 17.7572 7.21497 17.8872 6.52116 17.9354C6.23965 18.082 6.23965 18.2119 6.52116 18.3252C6.01443 18.702 5.60612 19.166 5.29622 19.7171C5.45837 19.7642 5.51405 19.857 5.46326 19.9955C5.41715 19.9447 5.36147 19.9075 5.29622 19.8842C5.0735 20.1812 4.85078 20.4781 4.62807 20.7751C4.87477 21.0118 5.00469 21.3087 5.01782 21.6659C5.05494 21.6288 5.09206 21.5916 5.12918 21.5546C5.18486 21.6659 5.24054 21.7773 5.29622 21.8886C5.28271 22.1673 5.26416 22.4641 5.24054 22.7795C5.17936 23.0312 5.04945 23.2167 4.85078 23.3363C4.82817 23.1644 4.75392 23.0158 4.62807 22.8909C4.91811 22.6026 4.91811 22.3242 4.62807 22.0557C4.72961 21.8747 4.65538 21.7818 4.40535 21.7773C4.44647 21.5611 4.52072 21.3569 4.62807 21.1648C4.37258 20.918 4.2241 20.9737 4.18263 21.3318C4.01231 21.395 3.84527 21.4691 3.68152 21.5546C3.80027 20.7556 4.13435 20.0503 4.68375 19.4387C4.75987 19.2184 4.70419 19.0327 4.51671 18.882C4.64257 18.757 4.71681 18.6085 4.73943 18.4365C5.45591 17.2745 6.42101 16.3836 7.63475 15.7639Z" fill="#E76530"/>
<path fill-rule="evenodd" clip-rule="evenodd" d="M4.73932 18.4365C4.7167 18.6085 4.64246 18.757 4.5166 18.882C4.70409 19.0327 4.75976 19.2184 4.68364 19.4388C4.13424 20.0503 3.80017 20.7556 3.68141 21.5546C3.84517 21.4692 4.0122 21.395 4.18253 21.3318C4.21637 21.4042 4.2535 21.4785 4.29388 21.5546C4.1696 21.5437 4.05824 21.5993 3.95981 21.7216C3.85697 22.1145 3.74561 22.5042 3.62573 22.8909C3.49848 22.4872 3.35 22.4687 3.1803 22.8352C3.21741 22.8723 3.25454 22.9095 3.29166 22.9465C3.1766 23.3023 3.04668 23.6921 2.9019 24.1158C2.68927 23.5942 2.68927 23.0746 2.9019 22.5568C3.08748 22.6503 3.10603 22.5947 2.95758 22.3898C3.1146 22.3488 3.22596 22.256 3.29166 22.1114C3.18514 21.936 3.11091 21.7503 3.06894 21.5546C3.39564 20.3808 3.95244 19.3415 4.73932 18.4365Z" fill="#E76530"/>
<path fill-rule="evenodd" clip-rule="evenodd" d="M4.40526 21.7773C4.3751 22.364 4.24519 22.9579 4.01551 23.559C3.95589 23.3618 3.86309 23.3247 3.73711 23.4477C3.5063 24.0203 3.43207 24.5956 3.5144 25.1737C3.22504 26.0106 3.24359 26.8458 3.57007 27.6793C3.64738 27.5325 3.74017 27.4397 3.84847 27.4009C3.6607 26.9782 3.79062 26.6998 4.23823 26.5657C4.38347 27.5029 4.51338 28.468 4.62798 29.461C4.43579 29.4961 4.2502 29.5146 4.07119 29.5167C4.22398 29.3784 4.33534 29.2113 4.40526 29.0156C4.23617 29.0732 4.08769 28.9989 3.95983 28.7929C3.87285 28.656 3.81717 28.5076 3.79279 28.3474C3.75568 28.6444 3.71855 28.9413 3.68143 29.2383C3.62575 29.294 3.57007 29.3497 3.5144 29.4053C3.65536 29.4397 3.78529 29.4954 3.90415 29.5724C3.93769 29.9599 4.03049 30.3311 4.18255 30.686C4.14924 30.9438 4.05643 30.9438 3.90415 30.686C3.88393 30.3824 3.82825 30.0854 3.73711 29.7951C3.44558 30.3371 3.48269 30.8568 3.84847 31.3541C3.82516 31.4194 3.78805 31.475 3.73711 31.5211C4.16092 31.6765 4.27228 31.9549 4.07119 32.3563C4.16306 32.455 4.27442 32.4921 4.40526 32.4677C4.33847 32.6236 4.22711 32.735 4.07119 32.8018C3.15084 31.0303 2.6126 29.1372 2.45649 27.1225C2.23745 25.2024 2.44161 23.3464 3.06896 21.5546C3.11093 21.7503 3.18516 21.936 3.29168 22.1113C3.22598 22.256 3.11462 22.3488 2.9576 22.3897C3.10605 22.5946 3.0875 22.6503 2.90192 22.5568C2.6893 23.0746 2.6893 23.5942 2.90192 24.1158C3.0467 23.6921 3.17662 23.3023 3.29168 22.9465C3.25456 22.9095 3.21744 22.8723 3.18032 22.8352C3.35002 22.4687 3.4985 22.4872 3.62575 22.8909C3.74563 22.5042 3.85699 22.1145 3.95983 21.7216C4.05826 21.5993 4.16962 21.5436 4.29391 21.5546C4.25352 21.4785 4.21639 21.4042 4.18255 21.3318C4.22402 20.9737 4.37249 20.918 4.62798 21.1648C4.52063 21.3569 4.44639 21.5611 4.40526 21.7773Z" fill="#E76530"/>
<path fill-rule="evenodd" clip-rule="evenodd" d="M11.755 24.7839C11.7055 25.103 11.7797 25.3814 11.9777 25.6191C11.9168 25.8452 11.8055 26.0865 11.6437 26.343C11.5068 26.4299 11.3584 26.4856 11.1982 26.51C11.4488 26.578 11.6344 26.7265 11.755 26.9554C11.5859 27.0911 11.4559 27.2581 11.3653 27.4565C11.3282 27.4195 11.291 27.3823 11.2539 27.3452C10.8414 27.6652 10.4145 27.9622 9.97329 28.2361C10.0476 28.3103 10.1217 28.3845 10.196 28.4588C10.0718 28.581 10.0718 28.711 10.196 28.8485C10.0286 29.0624 9.95447 29.3038 9.97329 29.5724C9.52273 27.611 10.1166 26.0148 11.755 24.7839Z" fill="#E76530"/>
<path fill-rule="evenodd" clip-rule="evenodd" d="M4.62799 29.461C4.64617 29.7235 4.62761 29.9833 4.57231 30.2405C4.54456 30.1153 4.48888 30.004 4.40527 29.9064C4.48165 30.6464 4.63014 31.4073 4.85071 32.1893C4.83214 32.245 4.81359 32.3006 4.79503 32.3563C4.65947 32.2577 4.51099 32.1463 4.34959 32.0222C4.28511 32.1813 4.30367 32.3298 4.40527 32.4677C4.27443 32.4921 4.16307 32.455 4.0712 32.3563C4.27229 31.9549 4.16093 31.6765 3.73712 31.5211C3.78806 31.475 3.82517 31.4193 3.84848 31.3541C3.4827 30.8568 3.44558 30.3371 3.73712 29.7951C3.82826 30.0854 3.88394 30.3824 3.90416 30.6859C4.05644 30.9437 4.14925 30.9437 4.18256 30.6859C4.0305 30.331 3.9377 29.9599 3.90416 29.5724C3.7853 29.4954 3.65537 29.4397 3.5144 29.4053C3.57008 29.3496 3.62576 29.294 3.68144 29.2383C3.71856 28.9413 3.75568 28.6444 3.7928 28.3474C3.81718 28.5075 3.87286 28.656 3.95984 28.7928C4.0877 28.9989 4.23617 29.0731 4.40527 29.0156C4.33535 29.2113 4.22399 29.3784 4.0712 29.5167C4.25021 29.5146 4.4358 29.4961 4.62799 29.461Z" fill="#E76530"/>
<path fill-rule="evenodd" clip-rule="evenodd" d="M4.40535 21.7773C4.65539 21.7818 4.72962 21.8747 4.62807 22.0557C4.91811 22.3242 4.91811 22.6026 4.62807 22.8909C4.75393 23.0158 4.82817 23.1644 4.85079 23.3363C4.91656 23.4088 4.9908 23.4831 5.0735 23.559C4.81347 23.8594 4.81347 24.1378 5.0735 24.3942C4.9295 24.4488 4.78101 24.4674 4.62807 24.4499C4.64472 24.3327 4.62615 24.2214 4.57239 24.1158C4.52766 24.2686 4.47198 24.417 4.40535 24.5612C4.47198 24.7055 4.52766 24.8539 4.57239 25.0067C4.80521 24.8953 4.99081 24.9696 5.12918 25.2294C5.15314 25.5218 5.13457 25.7816 5.0735 26.0089C5.21014 26.1303 5.30295 26.2788 5.3519 26.4543C5.42336 26.8988 5.47904 27.3442 5.51894 27.7906C5.35437 27.7615 5.20589 27.7986 5.0735 27.902C5.14101 28.148 5.21524 28.3893 5.29622 28.6258C5.01989 28.7012 4.81572 28.6085 4.68375 28.3474C4.68966 28.9764 4.72678 29.6074 4.79511 30.2405C5.15084 31.338 5.41069 32.4516 5.57462 33.5813C5.54036 33.4913 5.48468 33.417 5.40758 33.3586C5.29622 33.5256 5.18486 33.6927 5.0735 33.8597C5.25404 34.2285 5.29115 34.2285 5.18486 33.8597C5.29055 33.791 5.38336 33.8095 5.46326 33.9154C5.48662 34.0605 5.46806 34.2089 5.40758 34.3608C5.52915 34.5948 5.64051 34.8361 5.74166 35.0846C5.94954 35.1638 6.11658 35.1081 6.24277 34.9176C6.23026 35.1045 6.17458 35.2901 6.07573 35.4744C6.11112 35.6021 6.18535 35.695 6.29845 35.7528C6.28756 35.933 6.28756 36.1 6.29845 36.2539C5.923 35.9826 5.62605 35.6486 5.40758 35.2517C4.90418 34.4677 4.45875 33.651 4.07128 32.8018C4.2272 32.735 4.33856 32.6236 4.40535 32.4677C4.30375 32.3298 4.28519 32.1813 4.34967 32.0223C4.51107 32.1463 4.65955 32.2577 4.79511 32.3563C4.81367 32.3007 4.83222 32.245 4.85079 32.1893C4.63022 31.4074 4.48173 30.6464 4.40535 29.9065C4.48896 30.004 4.54464 30.1154 4.57239 30.2405C4.62769 29.9833 4.64625 29.7235 4.62807 29.461C4.51347 28.468 4.38356 27.5029 4.23831 26.5657C3.79071 26.6998 3.66079 26.9782 3.84856 27.4009C3.74026 27.4398 3.64747 27.5325 3.57016 27.6793C3.24368 26.8458 3.22513 26.0106 3.51448 25.1737C3.43216 24.5957 3.50639 24.0203 3.7372 23.4477C3.86318 23.3247 3.95598 23.3618 4.0156 23.559C4.24527 22.9579 4.37519 22.364 4.40535 21.7773Z" fill="#E76530"/>
<path fill-rule="evenodd" clip-rule="evenodd" d="M7.3006 17.5457C7.24749 17.7503 7.21036 17.9546 7.18924 18.1581C7.3006 18.1952 7.41195 18.2324 7.52331 18.2695C7.20576 18.4467 6.87169 18.5951 6.52109 18.7149C6.7233 18.8614 6.90889 19.0284 7.07788 19.216C6.90757 19.3033 6.72197 19.4147 6.52109 19.5501C6.65041 19.7421 6.63185 19.9276 6.46541 20.1069C6.10219 19.9576 6.04651 19.9947 6.29837 20.2183C5.95008 20.5836 5.72737 21.0106 5.63022 21.4989C5.70446 21.536 5.77869 21.5732 5.85293 21.6102C5.5503 21.85 5.47605 22.147 5.63022 22.5011C5.48221 22.686 5.37085 22.8901 5.29614 23.1136C5.44906 23.3352 5.56042 23.5765 5.63022 23.8374C5.34327 24.2007 5.34327 24.5718 5.63022 24.951C5.58404 25.396 5.54692 25.8043 5.51886 26.1759C5.74515 26.6576 5.89363 27.1401 5.96429 27.6236C5.55086 27.7531 5.55086 27.9202 5.96429 28.1247C5.94099 28.19 5.90387 28.2457 5.85293 28.2918C5.98346 28.3384 6.09482 28.4126 6.18701 28.5145C6.03854 28.6258 6.03854 28.7372 6.18701 28.8485C6.05649 28.8952 5.94513 28.9694 5.85293 29.0713C5.95863 29.14 6.05143 29.1215 6.13133 29.0156C6.16808 29.3398 6.298 29.6181 6.52109 29.8508C6.44684 29.9621 6.37261 30.0735 6.29837 30.1849C6.43359 30.6706 6.65631 31.1531 6.96652 31.6325C6.79837 31.7272 6.63133 31.8199 6.46541 31.9109C6.36013 31.8658 6.28589 31.7915 6.24269 31.6882C6.16942 31.8673 6.2251 31.9972 6.40973 32.0779C6.33548 32.1522 6.26125 32.2264 6.18701 32.3007C6.38057 32.6028 6.64041 32.8255 6.96652 32.9688C6.88191 33.1293 6.80768 33.2963 6.7438 33.4699C6.89447 33.6019 7.02439 33.7504 7.13356 33.9154C7.25435 33.6752 7.38426 33.6566 7.52331 33.8597C7.12067 34.1432 7.1578 34.403 7.63467 34.6392C7.34226 35.0204 7.45361 35.2431 7.96875 35.3073C7.85739 35.4187 7.74603 35.5301 7.63467 35.6414C7.72299 35.7622 7.79723 35.8922 7.85739 36.0312C7.71135 36.1156 7.65567 36.2269 7.69035 36.3653C7.89527 36.5137 7.95095 36.4951 7.85739 36.3096C8.03936 36.2546 8.22498 36.2361 8.41418 36.2539C8.39614 36.4796 8.41474 36.7023 8.46986 36.922C8.60906 37.0415 8.75761 37.0415 8.9153 36.922C9.24893 37.1458 9.30461 37.3871 9.08233 37.6459C9.09859 37.8382 9.17287 37.8568 9.30505 37.7016C9.37933 37.8872 9.45349 38.0727 9.52777 38.2583C9.66541 38.1753 9.81396 38.1382 9.9732 38.147C9.9732 38.3697 9.9732 38.5924 9.9732 38.8151C10.1204 38.8341 10.2504 38.797 10.363 38.7038C10.6774 39.0573 10.9558 39.4471 11.1981 39.873C11.7112 39.9219 11.971 40.2003 11.9777 40.7082C11.6083 40.5259 11.2371 40.3403 10.8641 40.1514C9.90561 39.5639 8.97754 38.933 8.08011 38.2583C7.44237 37.6212 6.84845 36.953 6.29837 36.2539C6.28748 36.1 6.28748 35.933 6.29837 35.7528C6.18527 35.695 6.11104 35.6021 6.07565 35.4744C6.1745 35.2901 6.23018 35.1045 6.24269 34.9176C6.1165 35.1081 5.94946 35.1638 5.74158 35.0846C5.64043 34.8361 5.52907 34.5948 5.4075 34.3608C5.46798 34.2089 5.48654 34.0605 5.46318 33.9154C5.38328 33.8095 5.29047 33.791 5.18478 33.8597C5.29108 34.2285 5.25396 34.2285 5.07342 33.8597C5.18478 33.6926 5.29614 33.5256 5.4075 33.3586C5.48461 33.417 5.54028 33.4913 5.57454 33.5813C5.41061 32.4516 5.15076 31.338 4.79503 30.2405C4.7267 29.6073 4.68958 28.9764 4.68367 28.3474C4.81564 28.6085 5.01981 28.7012 5.29614 28.6258C5.21516 28.3893 5.14093 28.148 5.07342 27.902C5.20581 27.7985 5.35429 27.7615 5.51886 27.7906C5.47896 27.3442 5.42328 26.8988 5.35182 26.4543C5.30287 26.2788 5.21006 26.1303 5.07342 26.0089C5.13449 25.7816 5.15306 25.5218 5.1291 25.2294C4.99073 24.9696 4.80513 24.8953 4.57231 25.0067C4.52758 24.8539 4.4719 24.7055 4.40527 24.5612C4.4719 24.417 4.52758 24.2686 4.57231 24.1158C4.62608 24.2214 4.64464 24.3327 4.62799 24.4499C4.78093 24.4674 4.92942 24.4488 5.07342 24.3942C4.81339 24.1377 4.81339 23.8594 5.07342 23.559C4.99072 23.4831 4.91648 23.4088 4.85071 23.3363C5.04937 23.2167 5.17928 23.0312 5.24046 22.7795C5.26408 22.4641 5.28263 22.1673 5.29614 21.8886C5.24046 21.7773 5.18478 21.6659 5.1291 21.5546C5.09199 21.5916 5.05486 21.6288 5.01775 21.6659C5.00462 21.3087 4.87469 21.0118 4.62799 20.7751C4.85071 20.4781 5.07342 20.1812 5.29614 19.8842C5.3614 19.9075 5.41708 19.9447 5.46318 19.9955C5.51397 19.857 5.45829 19.7643 5.29614 19.7171C5.60604 19.166 6.01435 18.702 6.52109 18.3252C6.23957 18.2119 6.23957 18.082 6.52109 17.9354C7.21489 17.8872 7.21489 17.7572 6.52109 17.5457C6.51673 17.3386 6.60953 17.1902 6.79948 17.1002C6.84965 17.3904 7.01669 17.5389 7.3006 17.5457Z" fill="#E76530"/>
</svg>
